<svg width="30" height="30" viewBox="0 0 30 30" xmlns="http://www.w3.org/2000/svg">
<path d="M13.2588 13.4854C13.0713 13.4854 12.9424 13.4531 12.8721 13.3887C12.8076 13.3242 12.7754 13.1982 12.7754 13.0107V12.3516C12.7754 12.1641 12.8076 12.041 12.8721 11.9824C12.9424 11.918 13.0713 11.8857 13.2588 11.8857H13.9268C14.1084 11.8857 14.2314 11.918 14.2959 11.9824C14.3662 12.041 14.4014 12.1641 14.4014 12.3516V13.0107C14.4014 13.1982 14.3662 13.3242 14.2959 13.3887C14.2314 13.4531 14.1084 13.4854 13.9268 13.4854H13.2588ZM17.0732 13.4854C16.8857 13.4854 16.7568 13.4531 16.6865 13.3887C16.6221 13.3242 16.5898 13.1982 16.5898 13.0107V12.3516C16.5898 12.1641 16.6221 12.041 16.6865 11.9824C16.7568 11.918 16.8857 11.8857 17.0732 11.8857H17.7412C17.9287 11.8857 18.0547 11.918 18.1191 11.9824C18.1895 12.041 18.2246 12.1641 18.2246 12.3516V13.0107C18.2246 13.1982 18.1895 13.3242 18.1191 13.3887C18.0547 13.4531 17.9287 13.4854 17.7412 13.4854H17.0732ZM20.8877 13.4854C20.7061 13.4854 20.5801 13.4531 20.5098 13.3887C20.4453 13.3242 20.4131 13.1982 20.4131 13.0107V12.3516C20.4131 12.1641 20.4453 12.041 20.5098 11.9824C20.5801 11.918 20.7061 11.8857 20.8877 11.8857H21.5557C21.7432 11.8857 21.8691 11.918 21.9336 11.9824C22.0039 12.041 22.0391 12.1641 22.0391 12.3516V13.0107C22.0391 13.1982 22.0039 13.3242 21.9336 13.3887C21.8691 13.4531 21.7432 13.4854 21.5557 13.4854H20.8877ZM9.43555 17.2383C9.25391 17.2383 9.12793 17.209 9.05762 17.1504C8.99316 17.0859 8.96094 16.96 8.96094 16.7725V16.1045C8.96094 15.9229 8.99316 15.7998 9.05762 15.7354C9.12793 15.6709 9.25391 15.6387 9.43555 15.6387H10.1035C10.291 15.6387 10.417 15.6709 10.4814 15.7354C10.5518 15.7998 10.5869 15.9229 10.5869 16.1045V16.7725C10.5869 16.96 10.5518 17.0859 10.4814 17.1504C10.417 17.209 10.291 17.2383 10.1035 17.2383H9.43555ZM13.2588 17.2383C13.0713 17.2383 12.9424 17.209 12.8721 17.1504C12.8076 17.0859 12.7754 16.96 12.7754 16.7725V16.1045C12.7754 15.9229 12.8076 15.7998 12.8721 15.7354C12.9424 15.6709 13.0713 15.6387 13.2588 15.6387H13.9268C14.1084 15.6387 14.2314 15.6709 14.2959 15.7354C14.3662 15.7998 14.4014 15.9229 14.4014 16.1045V16.7725C14.4014 16.96 14.3662 17.0859 14.2959 17.1504C14.2314 17.209 14.1084 17.2383 13.9268 17.2383H13.2588ZM17.0732 17.2383C16.8857 17.2383 16.7568 17.209 16.6865 17.1504C16.6221 17.0859 16.5898 16.96 16.5898 16.7725V16.1045C16.5898 15.9229 16.6221 15.7998 16.6865 15.7354C16.7568 15.6709 16.8857 15.6387 17.0732 15.6387H17.7412C17.9287 15.6387 18.0547 15.6709 18.1191 15.7354C18.1895 15.7998 18.2246 15.9229 18.2246 16.1045V16.7725C18.2246 16.96 18.1895 17.0859 18.1191 17.1504C18.0547 17.209 17.9287 17.2383 17.7412 17.2383H17.0732ZM20.8877 17.2383C20.7061 17.2383 20.5801 17.209 20.5098 17.1504C20.4453 17.0859 20.4131 16.96 20.4131 16.7725V16.1045C20.4131 15.9229 20.4453 15.7998 20.5098 15.7354C20.5801 15.6709 20.7061 15.6387 20.8877 15.6387H21.5557C21.7432 15.6387 21.8691 15.6709 21.9336 15.7354C22.0039 15.7998 22.0391 15.9229 22.0391 16.1045V16.7725C22.0391 16.96 22.0039 17.0859 21.9336 17.1504C21.8691 17.209 21.7432 17.2383 21.5557 17.2383H20.8877ZM9.43555 21C9.25391 21 9.12793 20.9678 9.05762 20.9033C8.99316 20.8389 8.96094 20.7158 8.96094 20.5342V19.8662C8.96094 19.6846 8.99316 19.5615 9.05762 19.4971C9.12793 19.4326 9.25391 19.4004 9.43555 19.4004H10.1035C10.291 19.4004 10.417 19.4326 10.4814 19.4971C10.5518 19.5615 10.5869 19.6846 10.5869 19.8662V20.5342C10.5869 20.7158 10.5518 20.8389 10.4814 20.9033C10.417 20.9678 10.291 21 10.1035 21H9.43555ZM13.2588 21C13.0713 21 12.9424 20.9678 12.8721 20.9033C12.8076 20.8389 12.7754 20.7158 12.7754 20.5342V19.8662C12.7754 19.6846 12.8076 19.5615 12.8721 19.4971C12.9424 19.4326 13.0713 19.4004 13.2588 19.4004H13.9268C14.1084 19.4004 14.2314 19.4326 14.2959 19.4971C14.3662 19.5615 14.4014 19.6846 14.4014 19.8662V20.5342C14.4014 20.7158 14.3662 20.8389 14.2959 20.9033C14.2314 20.9678 14.1084 21 13.9268 21H13.2588ZM17.0732 21C16.8857 21 16.7568 20.9678 16.6865 20.9033C16.6221 20.8389 16.5898 20.7158 16.5898 20.5342V19.8662C16.5898 19.6846 16.6221 19.5615 16.6865 19.4971C16.7568 19.4326 16.8857 19.4004 17.0732 19.4004H17.7412C17.9287 19.4004 18.0547 19.4326 18.1191 19.4971C18.1895 19.5615 18.2246 19.6846 18.2246 19.8662V20.5342C18.2246 20.7158 18.1895 20.8389 18.1191 20.9033C18.0547 20.9678 17.9287 21 17.7412 21H17.0732ZM7.66016 24.999C6.5293 24.999 5.67676 24.7148 5.10254 24.1465C4.52832 23.584 4.24121 22.7402 4.24121 21.6152V7.72852C4.24121 6.60352 4.52832 5.75977 5.10254 5.19727C5.67676 4.62891 6.5293 4.34473 7.66016 4.34473H23.3311C24.4678 4.34473 25.3232 4.62891 25.8975 5.19727C26.4717 5.76563 26.7588 6.60938 26.7588 7.72852V21.6152C26.7588 22.7344 26.4717 23.5781 25.8975 24.1465C25.3232 24.7148 24.4678 24.999 23.3311 24.999H7.66016ZM7.53711 23.4434H23.4453C24.002 23.4434 24.4326 23.2939 24.7373 22.9951C25.042 22.7021 25.1943 22.2656 25.1943 21.6855V11.2002C25.1943 10.6201 25.042 10.1836 24.7373 9.89062C24.4326 9.5918 24.002 9.44238 23.4453 9.44238H7.53711C6.97461 9.44238 6.54395 9.5918 6.24512 9.89062C5.94629 10.1836 5.79688 10.6201 5.79688 11.2002V21.6855C5.79688 22.2656 5.94629 22.7021 6.24512 22.9951C6.54395 23.2939 6.97461 23.4434 7.53711 23.4434Z" fill="currentColor"/>
</svg>
