<svg width="15" height="15" viewBox="0 0 15 15" fill="none" xmlns="http://www.w3.org/2000/svg">
<path fill-rule="evenodd" clip-rule="evenodd" d="M11.467 3.7271C11.756 3.9161 11.837 4.3031 11.648 4.5921L7.39797 11.0921C7.34845 11.1678 7.28308 11.2319 7.20637 11.2799C7.12966 11.3279 7.04344 11.3587 6.95368 11.3701C6.86392 11.3815 6.77275 11.3733 6.68647 11.346C6.60019 11.3187 6.52086 11.273 6.45397 11.2121L3.70397 8.7121C3.58131 8.60058 3.50797 8.44489 3.5001 8.2793C3.49222 8.1137 3.55045 7.95176 3.66197 7.8291C3.7735 7.70644 3.92918 7.6331 4.09477 7.62523C4.26037 7.61735 4.42231 7.67558 4.54497 7.7871L6.75297 9.7941L10.602 3.9081C10.6927 3.76941 10.8348 3.67244 10.997 3.6385C11.1592 3.60455 11.3283 3.63642 11.467 3.7271Z" fill="currentColor"/>
</svg>
