<svg width="20" height="20" viewBox="0 0 20 20" fill="none" xmlns="http://www.w3.org/2000/svg">
<path d="M10.3301 14.4312C10.1198 14.4312 9.93164 14.3509 9.76562 14.1904L3.34082 7.61621C3.26888 7.54427 3.21354 7.46403 3.1748 7.37549C3.13607 7.28141 3.1167 7.1818 3.1167 7.07666C3.1167 6.93278 3.1499 6.80273 3.21631 6.68652C3.28271 6.57031 3.37126 6.479 3.48193 6.4126C3.59814 6.34619 3.72819 6.31299 3.87207 6.31299C4.08236 6.31299 4.26221 6.38493 4.41162 6.52881L10.77 13.0283H9.88184L16.2402 6.52881C16.3952 6.38493 16.575 6.31299 16.7798 6.31299C16.9237 6.31299 17.0509 6.34619 17.1616 6.4126C17.2778 6.479 17.3691 6.57031 17.4355 6.68652C17.502 6.80273 17.5352 6.93278 17.5352 7.07666C17.5352 7.28141 17.4604 7.4585 17.311 7.60791L10.8862 14.1904C10.8143 14.2679 10.7285 14.3288 10.6289 14.373C10.5348 14.4118 10.4352 14.4312 10.3301 14.4312Z" fill="currentColor"/>
</svg>
