<svg width="24" height="24" viewBox="0 0 24 24" fill="none" xmlns="http://www.w3.org/2000/svg">
    <path d="M19.854 16.854L15 12L19.854 7.14603C19.947 7.05188 19.9992 6.92487 19.9992 6.79253C19.9992 6.66019 19.947 6.53318 19.854 6.43903L17.561 4.14603C17.4672 4.05229 17.3401 3.99963 17.2075 3.99963C17.0749 3.99963 16.9478 4.05229 16.854 4.14603L12 9.00003L7.146 4.14603C7.05223 4.05229 6.92508 3.99963 6.7925 3.99963C6.65991 3.99963 6.53276 4.05229 6.439 4.14603L4.146 6.43903C4.05226 6.53279 3.9996 6.65994 3.9996 6.79253C3.9996 6.92511 4.05226 7.05226 4.146 7.14603L9 12L4.146 16.854C4.05226 16.9478 3.9996 17.0749 3.9996 17.2075C3.9996 17.3401 4.05226 17.4673 4.146 17.561L6.439 19.854C6.53276 19.9478 6.65991 20.0004 6.7925 20.0004C6.92508 20.0004 7.05223 19.9478 7.146 19.854L12 15L16.854 19.854C16.9478 19.9478 17.0749 20.0004 17.2075 20.0004C17.3401 20.0004 17.4672 19.9478 17.561 19.854L19.854 17.561C19.9477 17.4673 20.0004 17.3401 20.0004 17.2075C20.0004 17.0749 19.9477 16.9478 19.854 16.854Z" fill="currentColor"/>
</svg>
