<svg width="21" height="19" viewBox="0 0 21 19" fill="none" xmlns="http://www.w3.org/2000/svg">
<path d="M19.7871 14.5664C20.028 14.5664 20.2363 14.6608 20.4121 14.8496C20.5944 15.0319 20.6855 15.2533 20.6855 15.5137C20.6855 15.7676 20.5944 15.9889 20.4121 16.1777C20.2363 16.36 20.028 16.4512 19.7871 16.4512H15.9199V14.5664H19.7871ZM19.748 8.47266C20.015 8.47266 20.2363 8.56706 20.4121 8.75586C20.5944 8.93815 20.6855 9.15951 20.6855 9.41992C20.6855 9.68034 20.5944 9.90169 20.4121 10.084C20.2298 10.2663 20.0085 10.3574 19.748 10.3574H8.61523V8.47266H19.748ZM1.38867 8.47266H5.41211V10.3574H1.38867C1.14779 10.3574 0.936198 10.2663 0.753906 10.084C0.578125 9.90169 0.490234 9.68034 0.490234 9.41992C0.490234 9.15951 0.578125 8.93815 0.753906 8.75586C0.936198 8.56706 1.14779 8.47266 1.38867 8.47266ZM12.6875 2.38867V4.27344H1.41797C1.16406 4.27344 0.945964 4.17904 0.763672 3.99023C0.58138 3.80143 0.490234 3.58008 0.490234 3.32617C0.490234 3.07227 0.578125 2.85417 0.753906 2.67188C0.936198 2.48307 1.15755 2.38867 1.41797 2.38867H12.6875ZM19.7871 2.38867C20.028 2.38867 20.2363 2.47982 20.4121 2.66211C20.5944 2.8444 20.6855 3.06576 20.6855 3.32617C20.6855 3.58659 20.5944 3.8112 20.4121 4C20.2363 4.18229 20.028 4.27344 19.7871 4.27344H15.8027V2.38867H19.7871ZM12.6484 14.5664V16.4512H1.41797C1.16406 16.4512 0.945964 16.36 0.763672 16.1777C0.58138 15.9889 0.490234 15.7676 0.490234 15.5137C0.490234 15.2533 0.578125 15.0319 0.753906 14.8496C0.936198 14.6608 1.15755 14.5664 1.41797 14.5664H12.6484ZM14.2305 4.52734C14.569 4.52734 14.8522 4.41016 15.0801 4.17578C15.3145 3.9349 15.4316 3.64844 15.4316 3.31641C15.4316 2.97786 15.3145 2.69466 15.0801 2.4668C14.8522 2.23242 14.569 2.11523 14.2305 2.11523C13.8984 2.11523 13.6152 2.23242 13.3809 2.4668C13.1465 2.69466 13.0293 2.97786 13.0293 3.31641C13.0293 3.64844 13.1465 3.9349 13.3809 4.17578C13.6152 4.41016 13.8984 4.52734 14.2305 4.52734ZM14.2305 5.85547C13.7682 5.85547 13.3451 5.74154 12.9609 5.51367C12.5768 5.28581 12.2676 4.97982 12.0332 4.5957C11.8053 4.21159 11.6914 3.78841 11.6914 3.32617C11.6914 2.86393 11.8053 2.44076 12.0332 2.05664C12.2676 1.67253 12.5768 1.36654 12.9609 1.13867C13.3451 0.904297 13.7682 0.787109 14.2305 0.787109C14.6927 0.787109 15.1159 0.904297 15.5 1.13867C15.8841 1.36654 16.1901 1.67253 16.418 2.05664C16.6458 2.44076 16.7598 2.86393 16.7598 3.32617C16.7598 3.78841 16.6458 4.21159 16.418 4.5957C16.1901 4.97982 15.8841 5.28581 15.5 5.51367C15.1159 5.74154 14.6927 5.85547 14.2305 5.85547ZM7.0625 10.6211C7.40104 10.6211 7.68424 10.5072 7.91211 10.2793C8.14648 10.0449 8.26367 9.75846 8.26367 9.41992C8.26367 9.07487 8.14648 8.78841 7.91211 8.56055C7.68424 8.33268 7.40104 8.21875 7.0625 8.21875C6.72396 8.21875 6.4375 8.33268 6.20312 8.56055C5.96875 8.78841 5.85156 9.07487 5.85156 9.41992C5.85156 9.75846 5.96875 10.0449 6.20312 10.2793C6.4375 10.5072 6.72396 10.6211 7.0625 10.6211ZM7.0625 11.959C6.59375 11.959 6.16732 11.8451 5.7832 11.6172C5.4056 11.3828 5.10286 11.0736 4.875 10.6895C4.64714 10.3053 4.5332 9.88216 4.5332 9.41992C4.5332 8.95768 4.64714 8.53451 4.875 8.15039C5.10286 7.76628 5.4056 7.46029 5.7832 7.23242C6.16732 7.00456 6.59375 6.89062 7.0625 6.89062C7.52474 6.89062 7.94466 7.00456 8.32227 7.23242C8.70638 7.46029 9.01237 7.76628 9.24023 8.15039C9.47461 8.53451 9.5918 8.95768 9.5918 9.41992C9.5918 9.88216 9.47461 10.3053 9.24023 10.6895C9.01237 11.0736 8.70638 11.3828 8.32227 11.6172C7.94466 11.8451 7.52474 11.959 7.0625 11.959ZM14.2305 16.7246C14.569 16.7246 14.8522 16.6074 15.0801 16.373C15.3145 16.1387 15.4316 15.8522 15.4316 15.5137C15.4316 15.1751 15.3145 14.8919 15.0801 14.6641C14.8522 14.4297 14.569 14.3125 14.2305 14.3125C13.8984 14.3125 13.6152 14.4297 13.3809 14.6641C13.1465 14.8919 13.0293 15.1751 13.0293 15.5137C13.0293 15.8522 13.1465 16.1387 13.3809 16.373C13.6152 16.6074 13.8984 16.7246 14.2305 16.7246ZM14.2305 18.043C13.7682 18.043 13.3451 17.929 12.9609 17.7012C12.5768 17.4733 12.2676 17.1673 12.0332 16.7832C11.8053 16.4056 11.6914 15.9824 11.6914 15.5137C11.6914 15.0514 11.8053 14.6283 12.0332 14.2441C12.2676 13.86 12.5768 13.554 12.9609 13.3262C13.3451 13.0983 13.7682 12.9844 14.2305 12.9844C14.6927 12.9844 15.1159 13.0983 15.5 13.3262C15.8841 13.554 16.1901 13.86 16.418 14.2441C16.6458 14.6283 16.7598 15.0514 16.7598 15.5137C16.7598 15.9824 16.6458 16.4056 16.418 16.7832C16.1901 17.1673 15.8841 17.4733 15.5 17.7012C15.1159 17.929 14.6927 18.043 14.2305 18.043Z" fill="#888888"/>
</svg>
