<svg width="25" height="24" fill="none" xmlns="http://www.w3.org/2000/svg"><path d="M12.948 19.35c2.034-1.867 3.542-3.563 4.526-5.088.983-1.524 1.474-2.879 1.474-4.062 0-1.817-.579-3.304-1.737-4.462C16.053 4.579 14.631 4 12.949 4c-1.684 0-3.105.58-4.263 1.737C7.528 6.896 6.948 8.383 6.948 10.2c0 1.183.492 2.538 1.475 4.063.984 1.524 2.492 3.22 4.525 5.087Zm0 1.975a2.07 2.07 0 0 1-.7-.125 1.84 1.84 0 0 1-.624-.375A39.118 39.118 0 0 1 8.748 17.9c-.833-.95-1.529-1.87-2.087-2.762-.558-.892-.983-1.75-1.275-2.575-.292-.825-.438-1.613-.438-2.363 0-2.5.805-4.492 2.413-5.975C8.969 2.742 10.831 2 12.948 2c2.117 0 3.98.742 5.588 2.225S20.948 7.7 20.948 10.2c0 .75-.145 1.538-.437 2.363-.292.824-.717 1.683-1.275 2.574a21.678 21.678 0 0 1-2.088 2.763 39.112 39.112 0 0 1-2.874 2.925 1.84 1.84 0 0 1-.625.375 2.07 2.07 0 0 1-.7.125Zm0-9.325c.55 0 1.021-.196 1.413-.588.392-.391.587-.862.587-1.412 0-.55-.195-1.02-.587-1.412A1.926 1.926 0 0 0 12.948 8c-.55 0-1.02.196-1.412.588A1.926 1.926 0 0 0 10.948 10c0 .55.196 1.02.588 1.412.392.392.863.588 1.412.588Z" fill="#666"/></svg>