<svg width="30" height="30" viewBox="0 0 30 30" xmlns="http://www.w3.org/2000/svg">
<path d="M6.35938 22.1777C5.9082 22.1777 5.55078 22.0664 5.28711 21.8438C5.0293 21.627 4.90039 21.3369 4.90039 20.9736C4.90039 20.5928 5.00586 20.2266 5.2168 19.875C5.43359 19.5234 5.7002 19.1777 6.0166 18.8379C6.33887 18.498 6.66113 18.1611 6.9834 17.8271C7.2002 17.5928 7.37305 17.3086 7.50195 16.9746C7.63672 16.6406 7.74219 16.2744 7.81836 15.876C7.89453 15.4775 7.95605 15.0703 8.00293 14.6543C8.0498 14.2324 8.09082 13.8193 8.12598 13.415C8.17871 12.0791 8.35156 10.8838 8.64453 9.8291C8.9375 8.77441 9.38281 7.88672 9.98047 7.16602C10.584 6.44531 11.375 5.91797 12.3535 5.58398C12.5469 4.83398 12.916 4.20703 13.4609 3.70312C14.0117 3.19922 14.6914 2.94727 15.5 2.94727C16.3027 2.94727 16.9795 3.19922 17.5303 3.70312C18.0811 4.20703 18.4531 4.83398 18.6465 5.58398C19.6191 5.91797 20.4072 6.44531 21.0107 7.16602C21.6143 7.88672 22.0625 8.77441 22.3555 9.8291C22.6484 10.8838 22.8213 12.0791 22.874 13.415C22.9092 13.8193 22.9473 14.2324 22.9883 14.6543C23.0352 15.0703 23.0967 15.4775 23.1729 15.876C23.2549 16.2744 23.3604 16.6406 23.4893 16.9746C23.624 17.3086 23.7998 17.5928 24.0166 17.8271C24.3389 18.1611 24.6582 18.498 24.9746 18.8379C25.2969 19.1777 25.5635 19.5234 25.7744 19.875C25.9912 20.2266 26.0996 20.5928 26.0996 20.9736C26.0996 21.3369 25.9678 21.627 25.7041 21.8438C25.4463 22.0664 25.0889 22.1777 24.6318 22.1777H6.35938ZM15.5 26.4756C14.8789 26.4756 14.3223 26.3408 13.8301 26.0713C13.3438 25.8018 12.9482 25.4473 12.6436 25.0078C12.3447 24.5684 12.166 24.0908 12.1074 23.5752H18.8926C18.834 24.0908 18.6523 24.5684 18.3477 25.0078C18.0488 25.4473 17.6533 25.8018 17.1611 26.0713C16.6748 26.3408 16.1211 26.4756 15.5 26.4756Z" fill="currentColor"/>
</svg>
