<svg width="16" height="16" viewBox="0 0 16 16" fill="none" xmlns="http://www.w3.org/2000/svg">
    <path d="M6.11807 4.7383C6.01179 4.63201 5.86435 4.57104 5.71426 4.57104C5.56379 4.57104 5.41635 4.63198 5.31007 4.7383C5.20379 4.84458 5.14282 4.99201 5.14282 5.14248C5.14282 5.29295 5.20379 5.44001 5.31007 5.54667C5.41635 5.65295 5.56379 5.71392 5.71426 5.71392C5.86473 5.71392 6.01179 5.65295 6.11807 5.54667C6.22473 5.44001 6.2857 5.29295 6.2857 5.14248C6.2857 4.99201 6.2247 4.84458 6.11807 4.7383Z" fill="currentColor"/>
    <path d="M10.6896 4.7383C10.5833 4.63201 10.4363 4.57104 10.2858 4.57104C10.1353 4.57104 9.98789 4.63198 9.88161 4.7383C9.77532 4.84458 9.71436 4.99201 9.71436 5.14248C9.71436 5.29295 9.77529 5.44001 9.88161 5.54667C9.98789 5.65295 10.1353 5.71392 10.2858 5.71392C10.4363 5.71392 10.5833 5.65295 10.6896 5.54667C10.7963 5.44001 10.8572 5.29295 10.8572 5.14248C10.8572 4.99201 10.7962 4.84498 10.6896 4.7383Z" fill="currentColor"/>
    <path d="M13.8329 1.81809C13.6798 1.54212 13.332 1.44241 13.056 1.59553L12.1441 2.10128C11.2071 0.827969 9.69852 0 7.9999 0C6.30127 0 4.79261 0.827969 3.85555 2.10128L2.94368 1.59553C2.66771 1.44237 2.31986 1.54212 2.1668 1.81809C2.01371 2.09406 2.11336 2.44187 2.38936 2.59497L3.28436 3.09138C3.00977 3.72013 2.85705 4.41384 2.85702 5.14269C2.85702 5.14272 2.85702 5.14272 2.85702 5.14275C2.85702 5.14275 2.85702 5.14275 2.85702 5.14278V5.14281V11.4285C2.85702 13.1903 4.19274 14.6457 5.90465 14.8358V15.4285C5.90465 15.7441 6.16049 16 6.47608 16C6.79168 16 7.04752 15.7441 7.04752 15.4285V14.8571H8.95227V15.4285C8.95227 15.7441 9.20811 16 9.52371 16C9.8393 16 10.0951 15.7441 10.0951 15.4285V14.8571H12.5713C12.8869 14.8571 13.1428 14.6012 13.1428 14.2857V5.14284C13.1428 5.14281 13.1428 5.14278 13.1428 5.14278C13.1428 5.14275 13.1428 5.14275 13.1428 5.14272C13.1428 4.41388 12.99 3.72016 12.7154 3.09138L13.6104 2.59497C13.8864 2.44187 13.986 2.09406 13.8329 1.81809ZM7.9999 1.14284C9.11574 1.14284 10.1261 1.60234 10.8524 2.34181C10.6676 2.30475 10.4777 2.28569 10.2849 2.28569C10.2848 2.28569 10.2849 2.28569 10.2847 2.28569C9.35202 2.28569 8.52227 2.73544 8.00068 3.42941C7.9198 3.32197 7.83115 3.21925 7.73436 3.12247C7.19465 2.58281 6.47696 2.28562 5.71352 2.28566C5.7134 2.28566 5.71346 2.28566 5.71333 2.28566C5.5194 2.28566 5.32999 2.30531 5.14677 2.34231C5.87305 1.60256 6.88371 1.14284 7.9999 1.14284ZM11.9998 13.7143H6.28555C5.02521 13.7143 3.99983 12.6889 3.99983 11.4286V8.37134C4.94346 9.53813 6.3859 10.2857 7.99986 10.2857C9.6138 10.2857 11.0562 9.53819 11.9998 8.37141V13.7143ZM11.9998 5.14291C11.9998 7.3485 10.2054 9.14291 7.99986 9.14291C5.79424 9.14291 3.99986 7.34853 3.99983 5.14294C3.99996 4.19756 4.76868 3.4285 5.71346 3.42856C6.17161 3.42853 6.60233 3.60687 6.92627 3.93072C7.24736 4.25178 7.42521 4.67781 7.42808 5.13141C7.42802 5.13525 7.42752 5.139 7.42752 5.14288V6.28572C7.42752 6.60131 7.68336 6.85716 7.99896 6.85716C8.31455 6.85716 8.5704 6.60131 8.5704 6.28572V5.15981C8.57058 5.15419 8.57127 5.14866 8.57127 5.14294C8.5714 4.19756 9.34011 3.4285 10.2849 3.42856C10.7431 3.42853 11.1738 3.60687 11.4977 3.93072C11.8215 4.25444 11.9998 4.68488 11.9998 5.14269C11.9998 5.14278 11.9998 5.14281 11.9998 5.14291Z" fill="currentColor"/>
</svg>
