<svg width="50" height="30" viewBox="0 0 50 30" xmlns="http://www.w3.org/2000/svg">
<path d="M18.2314 24.9902C17.417 24.9902 16.8369 24.8701 16.4912 24.6299C16.1455 24.3955 15.9727 24.0293 15.9727 23.5312C15.9727 22.9512 16.1133 22.3389 16.3945 21.6943C16.6816 21.0557 17.0947 20.4346 17.6338 19.8311C18.1729 19.2275 18.8291 18.6826 19.6025 18.1963C20.376 17.7041 21.2549 17.3145 22.2393 17.0273C23.2295 16.7402 24.3105 16.5967 25.4824 16.5967C26.6543 16.5967 27.7324 16.7402 28.7168 17.0273C29.707 17.3145 30.5889 17.7041 31.3623 18.1963C32.1357 18.6826 32.792 19.2275 33.3311 19.8311C33.876 20.4346 34.2891 21.0557 34.5703 21.6943C34.8516 22.3389 34.9922 22.9512 34.9922 23.5312C34.9922 24.0293 34.8193 24.3955 34.4736 24.6299C34.1279 24.8701 33.5479 24.9902 32.7334 24.9902H18.2314ZM25.4912 14.5576C24.6768 14.5576 23.9268 14.3379 23.2412 13.8984C22.5615 13.459 22.0166 12.8643 21.6064 12.1143C21.1963 11.3643 20.9912 10.5234 20.9912 9.5918C20.9912 8.90625 21.1084 8.26758 21.3428 7.67578C21.583 7.08398 21.9111 6.56836 22.3271 6.12891C22.7432 5.68359 23.2236 5.33789 23.7686 5.0918C24.3135 4.83984 24.8877 4.71387 25.4912 4.71387C26.1006 4.71387 26.6748 4.83691 27.2139 5.08301C27.7588 5.3291 28.2393 5.67188 28.6553 6.11133C29.0713 6.55078 29.3994 7.06641 29.6396 7.6582C29.8799 8.24414 30 8.87988 30 9.56543C30 10.5088 29.792 11.3584 29.376 12.1143C28.9658 12.8643 28.418 13.459 27.7324 13.8984C27.0527 14.3379 26.3057 14.5576 25.4912 14.5576ZM6.01465 24.9902C5.34668 24.9902 4.86328 24.8584 4.56445 24.5947C4.27148 24.3369 4.125 23.9531 4.125 23.4434C4.125 22.6582 4.31543 21.8584 4.69629 21.0439C5.07715 20.2354 5.62793 19.4941 6.34863 18.8203C7.06934 18.1406 7.93945 17.5928 8.95898 17.1768C9.97852 16.7607 11.127 16.5527 12.4043 16.5527C13.4941 16.5527 14.458 16.7021 15.2959 17.001C16.1396 17.2939 16.8779 17.6631 17.5107 18.1084C16.8896 18.6006 16.3506 19.1631 15.8936 19.7959C15.4424 20.4229 15.0938 21.0645 14.8477 21.7207C14.6016 22.3828 14.4785 23.001 14.4785 23.5752C14.4844 24.1494 14.6367 24.6211 14.9355 24.9902H6.01465ZM12.4131 14.8125C11.7041 14.8125 11.0508 14.6221 10.4531 14.2412C9.86133 13.8604 9.38672 13.3447 9.0293 12.6943C8.67188 12.0381 8.49316 11.3027 8.49316 10.4883C8.4873 9.69141 8.66602 8.97363 9.0293 8.33496C9.39258 7.69629 9.87012 7.18945 10.4619 6.81445C11.0596 6.43945 11.71 6.25195 12.4131 6.25195C13.1162 6.25195 13.7637 6.43652 14.3555 6.80566C14.9531 7.1748 15.4307 7.67871 15.7881 8.31738C16.1514 8.9502 16.333 9.66797 16.333 10.4707C16.333 11.291 16.1543 12.0293 15.7969 12.6855C15.4395 13.3359 14.9619 13.8545 14.3643 14.2412C13.7725 14.6221 13.1221 14.8125 12.4131 14.8125ZM44.9414 24.9902H36.0205C36.3193 24.6211 36.4688 24.1494 36.4688 23.5752C36.4746 23.001 36.3545 22.3828 36.1084 21.7207C35.8623 21.0645 35.5107 20.4229 35.0537 19.7959C34.5967 19.1631 34.0605 18.6006 33.4453 18.1084C34.0781 17.6631 34.8135 17.2939 35.6514 17.001C36.4893 16.7021 37.4531 16.5527 38.543 16.5527C39.8203 16.5527 40.9688 16.7607 41.9883 17.1768C43.0078 17.5928 43.8779 18.1406 44.5986 18.8203C45.3193 19.4941 45.8701 20.2354 46.251 21.0439C46.6377 21.8584 46.8311 22.6582 46.8311 23.4434C46.8311 23.9531 46.6816 24.3369 46.3828 24.5947C46.0898 24.8584 45.6094 24.9902 44.9414 24.9902ZM38.5342 14.8125C37.8252 14.8125 37.1719 14.6221 36.5742 14.2412C35.9824 13.8545 35.5078 13.3359 35.1504 12.6855C34.793 12.0293 34.6143 11.291 34.6143 10.4707C34.6143 9.66797 34.793 8.9502 35.1504 8.31738C35.5137 7.67871 35.9912 7.1748 36.583 6.80566C37.1807 6.43652 37.8311 6.25195 38.5342 6.25195C39.2373 6.25195 39.8848 6.43945 40.4766 6.81445C41.0742 7.18945 41.5518 7.69629 41.9092 8.33496C42.2725 8.97363 42.4541 9.69141 42.4541 10.4883C42.4541 11.3027 42.2754 12.0381 41.918 12.6943C41.5605 13.3447 41.083 13.8604 40.4854 14.2412C39.8936 14.6221 39.2432 14.8125 38.5342 14.8125Z" fill="currentColor"/>
</svg>
