<svg width="30" height="30" viewBox="0 0 30 30" xmlns="http://www.w3.org/2000/svg">
<path d="M14.4912 16.5527C13.7646 16.5469 13.1084 16.3564 12.5225 15.9814C11.9424 15.6064 11.4795 15.0996 11.1338 14.4609C10.7939 13.8164 10.6211 13.0869 10.6152 12.2725C10.6152 11.5107 10.7881 10.8135 11.1338 10.1807C11.4795 9.54785 11.9453 9.04102 12.5312 8.66016C13.1172 8.2793 13.7705 8.08887 14.4912 8.08887C15.2119 8.08887 15.8652 8.2793 16.4512 8.66016C17.0371 9.04102 17.5029 9.54785 17.8486 10.1807C18.1943 10.8135 18.3672 11.5107 18.3672 12.2725C18.3672 13.0869 18.1943 13.8164 17.8486 14.4609C17.5088 15.1055 17.0459 15.6182 16.46 15.999C15.874 16.374 15.2178 16.5586 14.4912 16.5527ZM22.2168 22.0898C21.5312 22.7695 20.7402 23.3496 19.8438 23.8301C18.9473 24.3164 18.0303 24.6885 17.0928 24.9463C16.1611 25.2041 15.2969 25.333 14.5 25.333C13.7031 25.333 12.833 25.2012 11.8896 24.9375C10.9521 24.6797 10.0322 24.3076 9.12988 23.8213C8.2334 23.3408 7.44531 22.7637 6.76562 22.0898L6.80078 21.9668C6.95312 21.5566 7.24609 21.1465 7.67969 20.7363C8.11328 20.3262 8.66406 19.9512 9.33203 19.6113C10.0059 19.2715 10.7764 18.999 11.6436 18.7939C12.5166 18.583 13.4658 18.4775 14.4912 18.4775C15.5225 18.4775 16.4746 18.583 17.3477 18.7939C18.2207 18.999 18.9912 19.2744 19.6592 19.6201C20.333 19.96 20.8838 20.3379 21.3115 20.7539C21.7451 21.1641 22.0381 21.5742 22.1904 21.9844L22.2168 22.0898ZM14.4912 26.0977C13.2373 26.0977 12.0391 25.9014 10.8965 25.5088C9.75977 25.1221 8.71387 24.5771 7.75879 23.874C6.80371 23.1709 5.97461 22.3418 5.27148 21.3867C4.56836 20.4316 4.02051 19.3828 3.62793 18.2402C3.24121 17.0977 3.04785 15.9023 3.04785 14.6543C3.04785 13.4004 3.24121 12.2051 3.62793 11.0684C4.01465 9.92578 4.55957 8.87695 5.2627 7.92188C5.97168 6.9668 6.80078 6.1377 7.75 5.43457C8.70508 4.72559 9.75098 4.17773 10.8877 3.79102C12.0303 3.39844 13.2285 3.20215 14.4824 3.20215C15.7363 3.20215 16.9346 3.39844 18.0771 3.79102C19.2197 4.17773 20.2686 4.72559 21.2236 5.43457C22.1787 6.1377 23.0078 6.9668 23.7109 7.92188C24.4199 8.87695 24.9678 9.92578 25.3545 11.0684C25.7471 12.2051 25.9434 13.4004 25.9434 14.6543C25.9434 15.9023 25.7471 17.0977 25.3545 18.2402C24.9678 19.3828 24.4199 20.4316 23.7109 21.3867C23.0078 22.3418 22.1787 23.1709 21.2236 23.874C20.2686 24.5771 19.2197 25.1221 18.0771 25.5088C16.9404 25.9014 15.7451 26.0977 14.4912 26.0977ZM14.4912 24.4629C15.5811 24.4629 16.6152 24.2959 17.5938 23.9619C18.5781 23.6338 19.4775 23.1709 20.292 22.5732C21.1123 21.9756 21.8213 21.2695 22.4189 20.4551C23.0225 19.6348 23.4883 18.7354 23.8164 17.7568C24.1445 16.7725 24.3057 15.7383 24.2998 14.6543C24.2998 13.5645 24.1328 12.5303 23.7988 11.5518C23.4707 10.5674 23.0078 9.66797 22.4102 8.85352C21.8125 8.0332 21.1035 7.32422 20.2832 6.72656C19.4688 6.12891 18.5693 5.66602 17.585 5.33789C16.6064 5.00977 15.5723 4.8457 14.4824 4.8457C13.3984 4.8457 12.3643 5.00977 11.3799 5.33789C10.4014 5.66602 9.50488 6.12891 8.69043 6.72656C7.87598 7.32422 7.16992 8.0332 6.57227 8.85352C5.97461 9.66797 5.51172 10.5674 5.18359 11.5518C4.85547 12.5303 4.69141 13.5645 4.69141 14.6543C4.69141 15.7383 4.85547 16.7725 5.18359 17.7568C5.51172 18.7354 5.97461 19.6348 6.57227 20.4551C7.17578 21.2695 7.88477 21.9756 8.69922 22.5732C9.51367 23.1709 10.4102 23.6338 11.3887 23.9619C12.373 24.2959 13.4072 24.4629 14.4912 24.4629Z" fill="currentColor"/>
</svg>
