<svg width="30" height="30" viewBox="0 0 30 30" xmlns="http://www.w3.org/2000/svg">
<path d="M7.22168 25.667C6.98145 25.4912 6.83496 25.2539 6.78223 24.9551C6.73535 24.6621 6.7793 24.3135 6.91406 23.9092L9.27832 16.8516L3.22266 12.501C2.87695 12.2549 2.63672 12 2.50195 11.7363C2.36719 11.4668 2.34668 11.1885 2.44043 10.9014C2.53418 10.6201 2.71289 10.4092 2.97656 10.2686C3.24609 10.1279 3.5918 10.0605 4.01367 10.0664L11.4492 10.1191L13.7168 3.01758C13.8457 2.60742 14.0156 2.2998 14.2266 2.09473C14.4434 1.88379 14.6982 1.77832 14.9912 1.77832C15.29 1.77832 15.5449 1.88379 15.7559 2.09473C15.9668 2.2998 16.1396 2.60742 16.2744 3.01758L18.5332 10.1191L25.96 10.0664C26.3936 10.0605 26.7422 10.1279 27.0059 10.2686C27.2754 10.4092 27.457 10.6201 27.5508 10.9014C27.6445 11.1885 27.624 11.4668 27.4893 11.7363C27.3545 12 27.1113 12.2549 26.7598 12.501L20.7041 16.8516L23.0684 23.9092C23.209 24.3135 23.2529 24.6621 23.2002 24.9551C23.1475 25.2539 23.0039 25.4912 22.7695 25.667C22.5293 25.8486 22.2598 25.9131 21.9609 25.8604C21.668 25.8135 21.3457 25.6641 20.9941 25.4121L14.9912 21.0088L8.98828 25.4121C8.63672 25.6641 8.31152 25.8135 8.0127 25.8604C7.71973 25.9131 7.45605 25.8486 7.22168 25.667Z" fill="currentColor"/>
</svg>
