<svg width="142" height="18" viewBox="0 0 142 18" fill="none" xmlns="http://www.w3.org/2000/svg">
<path d="M0 17.0273V0.925781H4.34766V13.5H16.1016V17.0273H0Z" fill="white"/>
<path d="M19.5938 17.0273V0.925781H23.9414V17.0273H19.5938Z" fill="white"/>
<path d="M44.332 17.0273V8.00391C44.332 7.40234 44.2812 6.85938 44.1797 6.375C44.0781 5.88281 43.8867 5.46484 43.6055 5.12109C43.332 4.76953 42.9453 4.5 42.4453 4.3125C41.9531 4.11719 41.3164 4.01953 40.5352 4.01953C39.9414 4.01953 39.3164 4.10156 38.6602 4.26562C38.0117 4.42188 37.3672 4.63281 36.7266 4.89844C36.0859 5.16406 35.4727 5.47266 34.8867 5.82422C34.3086 6.17578 33.793 6.54297 33.3398 6.92578V17.0273H28.9922V0.925781H33.3398V3.12891C33.8867 2.81641 34.4688 2.50781 35.0859 2.20312C35.7031 1.89062 36.3594 1.60938 37.0547 1.35938C37.75 1.10938 38.4883 0.90625 39.2695 0.75C40.0508 0.59375 40.875 0.515625 41.7422 0.515625C42.8281 0.515625 43.7969 0.648438 44.6484 0.914062C45.5078 1.17188 46.2344 1.54297 46.8281 2.02734C47.4219 2.50391 47.875 3.08594 48.1875 3.77344C48.5078 4.45312 48.668 5.21484 48.668 6.05859V17.0273H44.332Z" fill="white"/>
<path d="M71.6016 16.2305C70.2812 16.668 68.9609 16.9805 67.6406 17.168C66.3281 17.3633 64.9844 17.4609 63.6094 17.4609C61.8516 17.4609 60.2852 17.2734 58.9102 16.8984C57.543 16.5156 56.3906 15.9648 55.4531 15.2461C54.5156 14.5273 53.8008 13.6484 53.3086 12.6094C52.8164 11.5703 52.5703 10.3945 52.5703 9.08203C52.5703 7.86328 52.8164 6.73438 53.3086 5.69531C53.8086 4.64844 54.5117 3.74219 55.418 2.97656C56.332 2.20312 57.4336 1.60156 58.7227 1.17188C60.0117 0.734375 61.4492 0.515625 63.0352 0.515625C64.4961 0.515625 65.832 0.714844 67.043 1.11328C68.2617 1.50391 69.3047 2.08594 70.1719 2.85938C71.0469 3.63281 71.7227 4.58594 72.1992 5.71875C72.6836 6.85156 72.9258 8.15625 72.9258 9.63281V10.7109H57.0586C57.1992 11.2188 57.4297 11.6836 57.75 12.1055C58.0781 12.5273 58.5195 12.8867 59.0742 13.1836C59.6289 13.4805 60.3086 13.7109 61.1133 13.875C61.9258 14.0391 62.8945 14.1211 64.0195 14.1211C64.8164 14.1211 65.5977 14.0742 66.3633 13.9805C67.1289 13.8789 67.8438 13.75 68.5078 13.5938C69.1719 13.4297 69.7695 13.25 70.3008 13.0547C70.8398 12.8594 71.2734 12.6641 71.6016 12.4688V16.2305ZM68.6016 7.52344C68.5625 7.125 68.4414 6.71484 68.2383 6.29297C68.043 5.86328 67.7305 5.47656 67.3008 5.13281C66.8711 4.78906 66.3086 4.50781 65.6133 4.28906C64.918 4.0625 64.0508 3.94922 63.0117 3.94922C62.0352 3.94922 61.1914 4.07031 60.4805 4.3125C59.7695 4.55469 59.1719 4.85547 58.6875 5.21484C58.2109 5.57422 57.8398 5.96094 57.5742 6.375C57.3086 6.78906 57.1367 7.17188 57.0586 7.52344H68.6016Z" fill="white"/>
<path d="M81.1523 0.925781V9.99609C81.1523 10.5977 81.2031 11.1445 81.3047 11.6367C81.4062 12.1211 81.5938 12.5391 81.8672 12.8906C82.1406 13.2344 82.5234 13.5039 83.0156 13.6992C83.5078 13.8867 84.1484 13.9805 84.9375 13.9805C85.5312 13.9805 86.1523 13.8984 86.8008 13.7344C87.457 13.5703 88.1055 13.3516 88.7461 13.0781C89.3867 12.8047 89.9961 12.4922 90.5742 12.1406C91.1602 11.7812 91.6836 11.4102 92.1445 11.0273V0.925781H96.4805V17.0273H92.1445V14.8242C91.5977 15.1367 91.0156 15.4531 90.3984 15.7734C89.7812 16.0859 89.125 16.3711 88.4297 16.6289C87.7344 16.8789 86.9961 17.082 86.2148 17.2383C85.4336 17.4023 84.6094 17.4844 83.7422 17.4844C82.6562 17.4844 81.6836 17.3516 80.8242 17.0859C79.9648 16.8281 79.2383 16.4609 78.6445 15.9844C78.0508 15.5 77.5938 14.918 77.2734 14.2383C76.9609 13.5508 76.8047 12.7852 76.8047 11.9414V0.925781H81.1523Z" fill="white"/>
<path d="M119.625 6.42188C119.625 7.22656 119.508 7.96875 119.273 8.64844C119.039 9.32031 118.66 9.90234 118.137 10.3945C117.621 10.8789 116.949 11.2578 116.121 11.5312C115.293 11.8047 114.285 11.9414 113.098 11.9414H105.879V17.0273H101.531V0.925781H113.098C114.285 0.925781 115.293 1.0625 116.121 1.33594C116.949 1.60156 117.621 1.98047 118.137 2.47266C118.66 2.95703 119.039 3.53516 119.273 4.20703C119.508 4.87891 119.625 5.61719 119.625 6.42188ZM115.23 6.49219C115.23 6.11719 115.176 5.79688 115.066 5.53125C114.965 5.25781 114.793 5.03516 114.551 4.86328C114.309 4.69141 113.992 4.56641 113.602 4.48828C113.211 4.40234 112.73 4.35938 112.16 4.35938H105.879V8.50781H112.16C112.73 8.50781 113.211 8.47656 113.602 8.41406C113.992 8.34375 114.309 8.23047 114.551 8.07422C114.793 7.91016 114.965 7.69922 115.066 7.44141C115.176 7.18359 115.23 6.86719 115.23 6.49219Z" fill="white"/>
<path d="M141.328 6.42188C141.328 7.22656 141.211 7.96875 140.977 8.64844C140.742 9.32031 140.363 9.90234 139.84 10.3945C139.324 10.8789 138.652 11.2578 137.824 11.5312C136.996 11.8047 135.988 11.9414 134.801 11.9414H127.582V17.0273H123.234V0.925781H134.801C135.988 0.925781 136.996 1.0625 137.824 1.33594C138.652 1.60156 139.324 1.98047 139.84 2.47266C140.363 2.95703 140.742 3.53516 140.977 4.20703C141.211 4.87891 141.328 5.61719 141.328 6.42188ZM136.934 6.49219C136.934 6.11719 136.879 5.79688 136.77 5.53125C136.668 5.25781 136.496 5.03516 136.254 4.86328C136.012 4.69141 135.695 4.56641 135.305 4.48828C134.914 4.40234 134.434 4.35938 133.863 4.35938H127.582V8.50781H133.863C134.434 8.50781 134.914 8.47656 135.305 8.41406C135.695 8.34375 136.012 8.23047 136.254 8.07422C136.496 7.91016 136.668 7.69922 136.77 7.44141C136.879 7.18359 136.934 6.86719 136.934 6.49219Z" fill="white"/>
</svg>
