<svg width="50" height="44" viewBox="0 0 50 44" fill="none" xmlns="http://www.w3.org/2000/svg">
<path d="M19.8647 30.5449C18.4341 30.5449 17.7188 30.0664 17.7188 29.1094C17.7188 28.6162 17.8384 28.0938 18.0776 27.542C18.3218 26.9951 18.6758 26.4604 19.1396 25.938C19.6035 25.4106 20.1675 24.9346 20.8315 24.5098C21.4956 24.0801 22.2524 23.7383 23.1021 23.4844C23.9565 23.2305 24.8892 23.1035 25.8999 23.1035C26.9155 23.1035 27.8481 23.2305 28.6978 23.4844C29.5522 23.7383 30.3115 24.0801 30.9756 24.5098C31.6396 24.9346 32.2036 25.4106 32.6675 25.938C33.1313 26.4604 33.4829 26.9951 33.7222 27.542C33.9663 28.0938 34.0884 28.6162 34.0884 29.1094C34.0884 30.0664 33.373 30.5449 31.9424 30.5449H19.8647ZM19.5059 29.3218H32.3013C32.4819 29.3218 32.6089 29.2949 32.6821 29.2412C32.7554 29.1924 32.792 29.1021 32.792 28.9702C32.792 28.6284 32.6943 28.25 32.499 27.835C32.3037 27.4248 32.0156 27.0146 31.6348 26.6045C31.2539 26.1895 30.7852 25.811 30.2285 25.4692C29.6719 25.1274 29.0322 24.8516 28.3096 24.6416C27.5869 24.4316 26.7837 24.3267 25.8999 24.3267C25.021 24.3267 24.2202 24.4316 23.4976 24.6416C22.7749 24.8516 22.1353 25.1274 21.5786 25.4692C21.022 25.811 20.5532 26.1895 20.1724 26.6045C19.7915 27.0146 19.5034 27.4248 19.3081 27.835C19.1128 28.25 19.0151 28.6284 19.0151 28.9702C19.0151 29.1021 19.0518 29.1924 19.125 29.2412C19.1982 29.2949 19.3252 29.3218 19.5059 29.3218ZM25.9146 21.7559C25.3579 21.7559 24.8379 21.6436 24.3545 21.4189C23.8711 21.1895 23.4463 20.8745 23.0801 20.4741C22.7139 20.0737 22.4258 19.6099 22.2158 19.0825C22.0107 18.5552 21.9058 17.9888 21.9009 17.3833C21.9009 16.7925 22.0034 16.2383 22.2085 15.7207C22.4185 15.2031 22.7065 14.749 23.0728 14.3584C23.4438 13.9678 23.8711 13.6626 24.3545 13.4429C24.8428 13.2183 25.3628 13.106 25.9146 13.106C26.4663 13.106 26.9839 13.2158 27.4673 13.4355C27.9556 13.6504 28.3828 13.9531 28.749 14.3438C29.1152 14.7344 29.4009 15.1885 29.606 15.7061C29.8159 16.2236 29.9209 16.7778 29.9209 17.3687C29.9209 17.9741 29.8159 18.543 29.606 19.0752C29.4009 19.6025 29.1152 20.0688 28.749 20.4741C28.3828 20.8745 27.9556 21.1895 27.4673 21.4189C26.9839 21.6436 26.4663 21.7559 25.9146 21.7559ZM25.9146 20.5254C26.4077 20.5254 26.8594 20.3862 27.2695 20.1079C27.6846 19.8247 28.0142 19.4463 28.2583 18.9727C28.5024 18.4941 28.6245 17.9595 28.6245 17.3687C28.6245 16.7974 28.5024 16.2822 28.2583 15.8232C28.0142 15.3643 27.687 15.0005 27.2769 14.7319C26.8667 14.4634 26.4126 14.3291 25.9146 14.3291C25.4165 14.3291 24.96 14.4658 24.5449 14.7393C24.1348 15.0078 23.8076 15.374 23.5635 15.8379C23.3193 16.2969 23.1973 16.812 23.1973 17.3833C23.1973 17.9741 23.3193 18.5063 23.5635 18.98C23.8125 19.4536 24.1421 19.8296 24.5522 20.1079C24.9624 20.3862 25.4165 20.5254 25.9146 20.5254ZM9.69873 30.5449C9.09814 30.5449 8.64893 30.4204 8.35107 30.1714C8.05322 29.9272 7.9043 29.5513 7.9043 29.0435C7.9043 28.2817 8.08496 27.5469 8.44629 26.8389C8.80762 26.126 9.31055 25.4888 9.95508 24.9272C10.5996 24.3608 11.3516 23.9116 12.2109 23.5796C13.0752 23.2476 14.0103 23.0815 15.0161 23.0815C15.5581 23.0815 16.0854 23.1328 16.5981 23.2354C17.1108 23.333 17.6016 23.4795 18.0703 23.6748C18.5391 23.8701 18.981 24.1118 19.396 24.3999C19.2153 24.5317 19.0493 24.6685 18.8979 24.8101C18.7515 24.9517 18.6123 25.1006 18.4805 25.2568C18.1582 25.042 17.8115 24.8638 17.4404 24.7222C17.0742 24.5757 16.6885 24.4658 16.2832 24.3926C15.8779 24.3193 15.4556 24.2827 15.0161 24.2827C14.2251 24.2827 13.4731 24.4097 12.7603 24.6636C12.0522 24.9175 11.4224 25.2666 10.8706 25.7109C10.3237 26.1504 9.89404 26.6509 9.58154 27.2124C9.26904 27.7739 9.11279 28.3623 9.11279 28.9775C9.11279 29.1143 9.14453 29.2095 9.20801 29.2632C9.27148 29.3218 9.37402 29.3511 9.51562 29.3511H16.6714C16.6616 29.5171 16.686 29.6782 16.7446 29.8345C16.8081 29.9907 16.8911 30.1299 16.9937 30.252C17.1011 30.3789 17.2207 30.4766 17.3525 30.5449H9.69873ZM15.0308 21.9683C14.3862 21.9683 13.8003 21.7974 13.2729 21.4556C12.7505 21.1089 12.333 20.6475 12.0205 20.0713C11.708 19.4902 11.5493 18.8457 11.5444 18.1377C11.5444 17.625 11.6348 17.1416 11.8154 16.6875C11.9961 16.2334 12.2451 15.833 12.5625 15.4863C12.8848 15.1396 13.2559 14.8687 13.6758 14.6733C14.1006 14.478 14.5522 14.3804 15.0308 14.3804C15.5142 14.3804 15.9658 14.478 16.3857 14.6733C16.8057 14.8638 17.1743 15.1323 17.4917 15.479C17.814 15.8208 18.0654 16.2188 18.2461 16.6729C18.4268 17.1221 18.5171 17.6055 18.5171 18.123C18.5171 18.8311 18.3608 19.478 18.0483 20.064C17.7358 20.645 17.3159 21.1089 16.7886 21.4556C16.2612 21.7974 15.6753 21.9683 15.0308 21.9683ZM15.0308 20.7524C15.4458 20.7524 15.8267 20.6377 16.1733 20.4082C16.52 20.1738 16.7959 19.8589 17.001 19.4634C17.2109 19.063 17.3159 18.6162 17.3159 18.123C17.3159 17.6543 17.2134 17.2295 17.0083 16.8486C16.8032 16.4629 16.5273 16.1577 16.1807 15.9331C15.834 15.7036 15.4507 15.5889 15.0308 15.5889C14.6157 15.5889 14.2349 15.7036 13.8882 15.9331C13.5415 16.1626 13.2656 16.4702 13.0605 16.856C12.8555 17.2417 12.7529 17.6689 12.7529 18.1377C12.7529 18.626 12.8555 19.0679 13.0605 19.4634C13.2656 19.8589 13.5415 20.1738 13.8882 20.4082C14.2349 20.6377 14.6157 20.7524 15.0308 20.7524Z" fill="#FF28D0"/>
</svg>
