<svg width="21" height="20" viewBox="0 0 21 20" fill="none" xmlns="http://www.w3.org/2000/svg">
<path d="M17.1667 7.5H9.66667C8.74619 7.5 8 8.24619 8 9.16667V16.6667C8 17.5871 8.74619 18.3333 9.66667 18.3333H17.1667C18.0871 18.3333 18.8333 17.5871 18.8333 16.6667V9.16667C18.8333 8.24619 18.0871 7.5 17.1667 7.5Z" stroke="#33FFAA" stroke-linecap="round" stroke-linejoin="round"/>
<path d="M4.66602 12.4998H3.83268C3.39065 12.4998 2.96673 12.3242 2.65417 12.0117C2.34161 11.6991 2.16602 11.2752 2.16602 10.8332V3.33317C2.16602 2.89114 2.34161 2.46722 2.65417 2.15466C2.96673 1.8421 3.39065 1.6665 3.83268 1.6665H11.3327C11.7747 1.6665 12.1986 1.8421 12.5112 2.15466C12.8238 2.46722 12.9993 2.89114 12.9993 3.33317V4.1665" stroke="#33FFAA" stroke-linecap="round" stroke-linejoin="round"/>
</svg>
