<svg width="16" height="16" viewBox="0 0 16 16" fill="none" xmlns="http://www.w3.org/2000/svg">
<path d="M2.91211 14.9707L0.65625 15.8398C0.578125 15.8724 0.503255 15.8691 0.431641 15.8301C0.360026 15.791 0.304688 15.7324 0.265625 15.6543C0.233073 15.5827 0.233073 15.5078 0.265625 15.4297L1.19336 13.2617L11.8574 2.60742L13.5664 4.32617L2.91211 14.9707ZM14.4258 3.48633L12.6973 1.76758L13.6836 0.791016C13.931 0.55013 14.1816 0.419922 14.4355 0.400391C14.696 0.380859 14.9368 0.481771 15.1582 0.703125L15.4902 1.03516C15.7116 1.26302 15.8158 1.50391 15.8027 1.75781C15.7897 2.01172 15.6595 2.26562 15.4121 2.51953L14.4258 3.48633Z" fill="#33FFAA"/>
</svg>
