<svg width="50" height="44" viewBox="0 0 50 44" fill="none" xmlns="http://www.w3.org/2000/svg">
<path d="M11.7275 19.0312C11.7275 18.2158 11.8594 17.4663 12.123 16.7827C12.3867 16.0991 12.7554 15.5083 13.229 15.0103C13.7026 14.5073 14.2593 14.1191 14.8989 13.8457C15.5386 13.5723 16.2344 13.4355 16.9863 13.4355C17.5625 13.4355 18.1045 13.5283 18.6123 13.7139C19.1201 13.8945 19.5767 14.1484 19.9819 14.4756C20.3872 14.8027 20.7266 15.186 21 15.6255C21.2783 15.186 21.6201 14.8027 22.0254 14.4756C22.4307 14.1436 22.8848 13.8872 23.3877 13.7065C23.8955 13.5259 24.4375 13.4355 25.0137 13.4355C25.7656 13.4355 26.4614 13.5723 27.1011 13.8457C27.7407 14.1191 28.2974 14.5073 28.771 15.0103C29.2495 15.5083 29.6182 16.0991 29.877 16.7827C30.1406 17.4663 30.2725 18.2158 30.2725 19.0312C30.2725 20.0273 30.0674 21.0161 29.6572 21.9976C29.252 22.9741 28.6685 23.936 27.9067 24.8833C27.1499 25.8306 26.2393 26.7559 25.1748 27.6592C24.1152 28.5625 22.9312 29.4365 21.6226 30.2812C21.5298 30.3398 21.4248 30.3936 21.3076 30.4424C21.1953 30.4912 21.0928 30.5156 21 30.5156C20.9121 30.5156 20.8096 30.4912 20.6924 30.4424C20.5752 30.3936 20.4727 30.3398 20.3848 30.2812C19.0713 29.4365 17.8823 28.5625 16.8179 27.6592C15.7583 26.7559 14.8477 25.8306 14.0859 24.8833C13.3291 23.936 12.7456 22.9741 12.3354 21.9976C11.9302 21.0161 11.7275 20.0273 11.7275 19.0312ZM13.0239 19.0312C13.0239 19.915 13.2339 20.8062 13.6538 21.7046C14.0786 22.5981 14.6572 23.4795 15.3896 24.3486C16.1221 25.2129 16.9546 26.043 17.8872 26.8389C18.8247 27.6348 19.8037 28.3745 20.8242 29.0581C20.917 29.1216 20.9756 29.1533 21 29.1533C21.0244 29.1533 21.083 29.1216 21.1758 29.0581C22.2012 28.3745 23.1802 27.6348 24.1128 26.8389C25.0503 26.043 25.8828 25.2129 26.6104 24.3486C27.3428 23.4795 27.9189 22.5981 28.3389 21.7046C28.7637 20.8062 28.9761 19.915 28.9761 19.0312C28.9761 18.1768 28.8052 17.4272 28.4634 16.7827C28.1216 16.1382 27.6528 15.6353 27.0571 15.2739C26.4614 14.9126 25.7852 14.7319 25.0283 14.7319C24.4424 14.7319 23.9321 14.8394 23.4976 15.0542C23.063 15.269 22.687 15.54 22.3696 15.8672C22.0571 16.1895 21.791 16.5215 21.5713 16.8633C21.4492 17.0244 21.3491 17.1392 21.271 17.2075C21.1929 17.271 21.1025 17.3027 21 17.3027C20.8975 17.3027 20.8047 17.271 20.7217 17.2075C20.6387 17.144 20.5435 17.0293 20.436 16.8633C20.2212 16.5166 19.9575 16.1821 19.645 15.8599C19.3325 15.5327 18.9565 15.2642 18.5171 15.0542C18.0776 14.8394 17.5625 14.7319 16.9717 14.7319C16.2148 14.7319 15.5386 14.9126 14.9429 15.2739C14.3521 15.6353 13.8833 16.1382 13.5366 16.7827C13.1948 17.4272 13.0239 18.1768 13.0239 19.0312Z" fill="#FF3333"/>
</svg>
