<svg width="50" height="44" viewBox="0 0 50 44" fill="none" xmlns="http://www.w3.org/2000/svg">
<path d="M21 31.4165C20.917 31.4165 20.8193 31.3994 20.707 31.3652C20.5947 31.3311 20.4824 31.2822 20.3701 31.2188C19.3105 30.6084 18.3853 30.0591 17.5942 29.5708C16.8032 29.0825 16.1318 28.6211 15.5801 28.1865C15.0283 27.752 14.5815 27.3149 14.2397 26.8755C13.8979 26.4312 13.6489 25.9502 13.4927 25.4326C13.3413 24.915 13.2656 24.3242 13.2656 23.6602V16.4531C13.2656 16.1162 13.3096 15.8477 13.3975 15.6475C13.4854 15.4424 13.6196 15.2739 13.8003 15.1421C13.9858 15.0103 14.2202 14.8882 14.5034 14.7759C14.7524 14.6782 15.0698 14.5562 15.4556 14.4097C15.8413 14.2583 16.2563 14.0996 16.7007 13.9336C17.145 13.7627 17.5894 13.5967 18.0337 13.4355C18.4829 13.2695 18.8979 13.1182 19.2788 12.9814C19.6646 12.8447 19.9844 12.7373 20.2383 12.6592C20.3604 12.625 20.4849 12.5933 20.6118 12.564C20.7437 12.5298 20.873 12.5127 21 12.5127C21.1318 12.5127 21.2612 12.5273 21.3882 12.5566C21.5151 12.5811 21.6421 12.6152 21.769 12.6592C22.0181 12.7471 22.333 12.8594 22.7139 12.9961C23.0996 13.1328 23.5146 13.2842 23.959 13.4502C24.4082 13.6113 24.855 13.7749 25.2993 13.9409C25.7485 14.1021 26.1636 14.2559 26.5444 14.4023C26.9302 14.5488 27.2476 14.6733 27.4966 14.7759C27.7798 14.8931 28.0117 15.0176 28.1924 15.1494C28.3779 15.2764 28.5146 15.4424 28.6025 15.6475C28.6904 15.8477 28.7344 16.1162 28.7344 16.4531V23.6602C28.7344 24.3242 28.6562 24.9175 28.5 25.4399C28.3486 25.9575 28.1045 26.4385 27.7676 26.8828C27.4307 27.3271 26.9863 27.7666 26.4346 28.2012C25.8828 28.6357 25.209 29.0947 24.4131 29.5781C23.6221 30.0664 22.6943 30.6133 21.6299 31.2188C21.5176 31.2822 21.4053 31.3311 21.293 31.3652C21.1807 31.3994 21.083 31.4165 21 31.4165ZM21 29.9736C21.0781 29.9736 21.1611 29.9541 21.249 29.915C21.3369 29.8809 21.4419 29.8247 21.564 29.7466C22.438 29.2046 23.2021 28.7261 23.8564 28.311C24.5107 27.9009 25.0674 27.5176 25.5264 27.1611C25.9854 26.8096 26.3564 26.4531 26.6396 26.0918C26.9229 25.7305 27.1279 25.335 27.2549 24.9053C27.3867 24.4707 27.4526 23.9629 27.4526 23.3818V16.7021C27.4526 16.4922 27.4258 16.3384 27.3721 16.2407C27.3232 16.1382 27.2183 16.0576 27.0571 15.999C26.7886 15.9014 26.4639 15.7866 26.083 15.6548C25.707 15.5181 25.3042 15.3716 24.8745 15.2153C24.4448 15.0542 24.0151 14.8955 23.5854 14.7393C23.1606 14.5781 22.7603 14.4268 22.3843 14.2852C22.0083 14.1436 21.6885 14.019 21.4248 13.9116C21.3418 13.8823 21.2637 13.8579 21.1904 13.8384C21.1172 13.8188 21.0537 13.8091 21 13.8091C20.9463 13.8091 20.8828 13.8188 20.8096 13.8384C20.7363 13.853 20.6582 13.8774 20.5752 13.9116C20.3115 14.019 19.9917 14.1436 19.6157 14.2852C19.2397 14.4219 18.8369 14.5684 18.4072 14.7246C17.9775 14.876 17.5479 15.0298 17.1182 15.186C16.6885 15.3423 16.2856 15.4912 15.9097 15.6328C15.5337 15.7695 15.2139 15.8916 14.9502 15.999C14.7891 16.0625 14.6816 16.1431 14.6279 16.2407C14.5742 16.3384 14.5474 16.4922 14.5474 16.7021V23.3818C14.5474 23.9629 14.6108 24.4707 14.7378 24.9053C14.8696 25.335 15.0771 25.7329 15.3604 26.0991C15.6436 26.4604 16.0146 26.8169 16.4736 27.1685C16.9326 27.5249 17.4893 27.9082 18.1436 28.3184C18.7979 28.7334 19.562 29.2095 20.436 29.7466C20.5581 29.8247 20.6631 29.8809 20.751 29.915C20.8389 29.9541 20.9219 29.9736 21 29.9736Z" fill="#33FFAA"/>
</svg>
