<svg width="50" height="44" viewBox="0 0 50 44" fill="none" xmlns="http://www.w3.org/2000/svg">
<path d="M16.2466 31.9438C15.9634 31.9438 15.7437 31.8511 15.5874 31.6655C15.436 31.48 15.3604 31.231 15.3604 30.9185V28.3989H14.811C13.9272 28.3989 13.1777 28.2378 12.5625 27.9155C11.9473 27.5933 11.4785 27.1245 11.1562 26.5093C10.8389 25.894 10.6802 25.1494 10.6802 24.2754V16.8047C10.6802 15.9307 10.8389 15.186 11.1562 14.5708C11.4785 13.9556 11.9473 13.4868 12.5625 13.1646C13.1777 12.8374 13.9272 12.6738 14.811 12.6738H27.1816C28.0654 12.6738 28.8149 12.8374 29.4302 13.1646C30.0454 13.4868 30.5117 13.9556 30.8291 14.5708C31.1514 15.186 31.3125 15.9307 31.3125 16.8047V24.2754C31.3125 25.1445 31.1514 25.8867 30.8291 26.502C30.5117 27.1172 30.0454 27.5859 29.4302 27.9082C28.8149 28.2354 28.0654 28.3989 27.1816 28.3989H20.707L17.4038 31.3066C17.1646 31.5166 16.9619 31.6753 16.7959 31.7827C16.6299 31.8901 16.4468 31.9438 16.2466 31.9438ZM16.5688 30.4717L19.6523 27.5054C19.8135 27.3394 19.9673 27.2295 20.1138 27.1758C20.2603 27.127 20.4482 27.1025 20.6777 27.1025H27.1743C27.7993 27.1025 28.3218 26.9927 28.7417 26.7729C29.1616 26.5532 29.479 26.2334 29.6938 25.8135C29.9087 25.3887 30.0161 24.8711 30.0161 24.2607V16.812C30.0161 16.2017 29.9087 15.6865 29.6938 15.2666C29.479 14.8418 29.1616 14.5195 28.7417 14.2998C28.3218 14.0801 27.7993 13.9702 27.1743 13.9702H14.8184C14.1885 13.9702 13.6636 14.0801 13.2437 14.2998C12.8237 14.5195 12.5063 14.8418 12.2915 15.2666C12.0815 15.6865 11.9766 16.2017 11.9766 16.812V24.2607C11.9766 24.8711 12.0815 25.3887 12.2915 25.8135C12.5063 26.2334 12.8237 26.5532 13.2437 26.7729C13.6636 26.9927 14.1885 27.1025 14.8184 27.1025H15.9609C16.1807 27.1025 16.3369 27.1489 16.4297 27.2417C16.5225 27.3345 16.5688 27.4932 16.5688 27.7178V30.4717ZM16.0269 24.0044C15.895 24.0044 15.7827 23.958 15.6899 23.8652C15.5972 23.7725 15.5508 23.6577 15.5508 23.521C15.5508 23.3843 15.5972 23.2695 15.6899 23.1768C15.7827 23.084 15.895 23.0376 16.0269 23.0376H22.377C22.5088 23.0376 22.6211 23.084 22.7139 23.1768C22.8066 23.2695 22.853 23.3843 22.853 23.521C22.853 23.6577 22.8066 23.7725 22.7139 23.8652C22.6211 23.958 22.5088 24.0044 22.377 24.0044H16.0269ZM16.0269 20.9209C15.895 20.9209 15.7827 20.8745 15.6899 20.7817C15.5972 20.689 15.5508 20.5742 15.5508 20.4375C15.5508 20.3057 15.5972 20.1934 15.6899 20.1006C15.7827 20.0029 15.895 19.9541 16.0269 19.9541H25.7388C25.8706 19.9541 25.9829 20.0029 26.0757 20.1006C26.1685 20.1934 26.2148 20.3057 26.2148 20.4375C26.2148 20.5742 26.1685 20.689 26.0757 20.7817C25.9829 20.8745 25.8706 20.9209 25.7388 20.9209H16.0269ZM16.0269 17.8447C15.895 17.8447 15.7827 17.7983 15.6899 17.7056C15.5972 17.6128 15.5508 17.498 15.5508 17.3613C15.5508 17.2295 15.5972 17.1172 15.6899 17.0244C15.7827 16.9316 15.895 16.8853 16.0269 16.8853H25.7388C25.8706 16.8853 25.9829 16.9316 26.0757 17.0244C26.1685 17.1172 26.2148 17.2295 26.2148 17.3613C26.2148 17.498 26.1685 17.6128 26.0757 17.7056C25.9829 17.7983 25.8706 17.8447 25.7388 17.8447H16.0269Z" fill="#52D6FC"/>
</svg>
